


<svg xmlns="http://www.w3.org/2000/svg" width="100%" height="100%" viewBox="0 0 2000 1000">
  <!-- Vertical City Skyline -->

  <!-- Building 1 -->
  <rect x="5%" y="0" width="180" height="1000" fill="#ff790d"/>
  <rect x="4%" y="0" width="20" height="1000" fill="#ff6b00"/>
  <!-- Windows for Building 1 -->
  <rect x="5.5%" y="0%" width="40" height="40" fill="#ff6b00" rx="4" ry="4" />
  <rect x="5.5%" y="8%" width="40" height="40" fill="#ff6b00" rx="4" ry="4" />
  <rect x="5.5%" y="16%" width="40" height="40" fill="#ff6b00" rx="4" ry="4" />
  <rect x="5.5%" y="24%" width="100" height="120" fill="#ff6b00" rx="4" ry="4" />
  <!-- <rect x="5.5%" y="32%" width="40" height="40" fill="#ff6b00" rx="4" ry="4" /> -->
  <!-- <rect x="5.5%" y="40%" width="40" height="40" fill="#ff6b00" rx="4" ry="4" />
  <rect x="5.5%" y="48%" width="40" height="40" fill="#ff6b00" rx="4" ry="4" /> -->
  
  <rect x="5.5%" y="84%" width="40" height="120" fill="#ff6b00" rx="4" ry="4">
    <animate attributeName="y" values="88%; 62%; 62%; 40%; 40%; 62%; 62%; 88%; 88%" dur="13s" repeatCount="indefinite" />
  </rect>

  <rect x="8.5%" y="0%" width="40" height="40" fill="#ff6b00" rx="4" ry="4" />
  <rect x="8.5%" y="8%" width="40" height="120" fill="#ff6b00" rx="4" ry="4" />
  <!-- <rect x="8.5%" y="16%" width="40" height="40" fill="#ff6b00" rx="4" ry="4" /> -->
  <!-- <rect x="8.5%" y="24%" width="40" height="40" fill="#ff6b00" rx="4" ry="4" /> -->
  <!-- <rect x="8.5%" y="32%" width="40" height="40" fill="#ff6b00" rx="4" ry="4" /> -->
  <rect x="8.5%" y="40%" width="40" height="40" fill="#ff6b00" rx="4" ry="4" />
  <rect x="8.5%" y="48%" width="100" height="40" fill="#ff6b00" rx="4" ry="4" />

  <rect x="8.5%" y="70%" width="40" height="40" fill="#ff6b00" rx="4" ry="4" />
  <rect x="8.5%" y="78%" width="40" height="40" fill="#ff6b00" rx="4" ry="4" />

  <rect x="11.5%" y="0%" width="40" height="40" fill="#ff6b00" rx="4" ry="4" />
  <rect x="11.5%" y="8%" width="40" height="40" fill="#ff6b00" rx="4" ry="4" />
  <rect x="11.5%" y="16%" width="40" height="120" fill="#ff6b00" rx="4" ry="4" />
  <!-- <rect x="11.5%" y="24%" width="40" height="40" fill="#ff6b00" rx="4" ry="4" /> -->
  <rect x="11.5%" y="32%" width="40" height="40" fill="#ff6b00" rx="4" ry="4" />
  <rect x="11.5%" y="40%" width="40" height="40" fill="#ff6b00" rx="4" ry="4" />

  <rect x="11.5%" y="62%" width="40" height="40" fill="#ff6b00" rx="4" ry="4" />
  <rect x="11.5%" y="70%" width="40" height="40" fill="#ff6b00" rx="4" ry="4" />
  <rect x="11.5%" y="78%" width="40" height="40" fill="#ff6b00" rx="4" ry="4" />
  <rect x="11.5%" y="86%" width="40" height="40" fill="#ff6b00" rx="4" ry="4" />
  <!-- <rect x="11.5%" y="48%" width="40" height="40" fill="#ff6b00" rx="4" ry="4" /> -->

  <!-- Building 2 -->
  <rect x="17%" y="500" width="270" height="500" fill="#ff790d"/>
  <rect x="15%" y="500" width="40" height="500" fill="#ff6b00"/>
  <!-- Windows for Building 4 -->
  <rect x="18%" y="52%" width="60" height="60" fill="#ff6b00" rx="4" ry="4" />
  <rect x="18%" y="60%" width="60" height="60" fill="#ff6b00" rx="4" ry="4" />
  <rect x="18%" y="68%" width="60" height="60" fill="#ff6b00" rx="4" ry="4" />
  <rect x="22.2%" y="52%" width="60" height="60" fill="#ff6b00" rx="4" ry="4" />
  <rect x="22.2%" y="60%" width="60" height="60" fill="#ff6b00" rx="4" ry="4" />
  <rect x="22.2%" y="68%" width="60" height="60" fill="#ff6b00" rx="4" ry="4" />
  <rect x="26.5%" y="52%" width="60" height="60" fill="#ff6b00" rx="4" ry="4" />
  <rect x="26.5%" y="60%" width="60" height="60" fill="#ff6b00" rx="4" ry="4" />
  <rect x="26.5%" y="68%" width="60" height="60" fill="#ff6b00" rx="4" ry="4" />

  <!-- Building 6 -->
  <rect x="90%" y="300" width="130" height="700" fill="#ff790d"/>
  <rect x="89.5%" y="300" width="10" height="700" fill="#ff6b00"/>
  <!-- Windows for Building 6 -->
  <!-- <rect x="90.5%" y="31%" width="30" height="30" fill="rgba(255, 255, 255, 0.2)" rx="4" ry="4" /> -->
  <rect x="90.5%" y="35%" width="30" height="30" fill="#ff6b00" rx="4" ry="4" />
  <rect x="90.5%" y="39%" width="30" height="30" fill="#ff6b00" rx="4" ry="4" />
  <rect x="90.5%" y="43%" width="30" height="30" fill="#ff6b00" rx="4" ry="4" />
  <rect x="90.5%" y="55%" width="30" height="30" fill="#ff6b00" rx="4" ry="4" />
  <rect x="90.5%" y="59%" width="30" height="30" fill="#ff6b00" rx="4" ry="4" />
  <rect x="90.5%" y="63%" width="30" height="30" fill="#ff6b00" rx="4" ry="4" />
  <rect x="90.5%" y="67%" width="30" height="30" fill="#ff6b00" rx="4" ry="4" />

  <rect x="92.5%" y="31%" width="30" height="30" fill="#ff6b00" rx="4" ry="4" />
  <rect x="92.5%" y="35%" width="30" height="30" fill="#ff6b00" rx="4" ry="4" />
  <rect x="92.5%" y="39%" width="30" height="30" fill="#ff6b00" rx="4" ry="4" />
  <rect x="92.5%" y="46%" width="30" height="30" fill="#ff6b00" rx="4" ry="4" />
  <rect x="92.5%" y="63%" width="30" height="30" fill="#ff6b00" rx="4" ry="4" />
  <rect x="92.5%" y="67%" width="30" height="30" fill="#ff6b00" rx="4" ry="4" />
  <rect x="92.5%" y="71%" width="30" height="30" fill="#ff6b00" rx="4" ry="4" />
  <rect x="92.5%" y="75%" width="30" height="30" fill="#ff6b00" rx="4" ry="4" />

  <rect x="94.5%" y="31%" width="30" height="70" fill="#ff6b00" rx="4" ry="4">
    <animate attributeName="y" values="31%; 59%; 59%; 90%; 90%; 59%; 59%; 31%; 31%" dur="10s" repeatCount="indefinite" />
  </rect>
  <!-- <rect x="94.5%" y="35%" width="30" height="30" fill="#ff6b00" rx="4" ry="4" />
  <rect x="94.5%" y="39%" width="30" height="30" fill="#ff6b00" rx="4" ry="4" />
  <rect x="94.5%" y="46%" width="30" height="30" fill="#ff6b00" rx="4" ry="4" />
  <rect x="94.5%" y="50%" width="30" height="30" fill="#ff6b00" rx="4" ry="4" /> -->
</svg>
